<?xml version="1.0" encoding="UTF-8" standalone="no"?>
<!-- Created with Inkscape (http://www.inkscape.org/) -->

<svg width="200" height="200" viewBox="0 0 52.917 52.917" xml:space="preserve" xmlns="http://www.w3.org/2000/svg"><g transform="translate(-.076 30.541)scale(.0756)" style="display:inline"><circle style="opacity:1;fill:#fff;fill-opacity:1;fill-rule:nonzero;stroke:none;stroke-width:5.65454;stroke-linecap:round;stroke-linejoin:miter;stroke-miterlimit:4;stroke-dasharray:none;stroke-opacity:1;paint-order:stroke fill markers" cx="351" cy="-54" r="340"/><path transform="rotate(45)" style="opacity:1;fill:#000;fill-opacity:1;fill-rule:nonzero;stroke:none;stroke-width:2.04701;stroke-linecap:round;stroke-linejoin:miter;stroke-miterlimit:4;stroke-dasharray:none;stroke-opacity:1;paint-order:stroke fill markers" d="M165.011-616.378h9.8v660h-9.8zm20.05 0h9.8v660h-9.8zm20.05 0h9.8v660h-9.8zm20.05 0h9.8v660h-9.8zm20.05 0h9.8v660h-9.8z"/><path d="M351-404A350 350 0 0 0 1-54a350 350 0 0 0 350 350A350 350 0 0 0 701-54a350 350 0 0 0-350-350m0 49.7A300.3 300.3 0 0 1 651.3-54 300.3 300.3 0 0 1 351 246.3 300.3 300.3 0 0 1 50.7-54 300.3 300.3 0 0 1 351-354.3" style="opacity:1;fill:#0046aa;fill-opacity:1;fill-rule:nonzero;stroke:none;stroke-width:315.815;stroke-linecap:round;stroke-linejoin:round;stroke-miterlimit:4;stroke-dasharray:none;stroke-opacity:1;paint-order:stroke fill markers"/></g></svg>
